# xmcd
#
# Track frame offsets:
#	150
#	20746
#	39468
#	62925
#	82401
#	101404
#	114506
#	135085
#	155054
#	171544
#	197405
#
# Disc length: 3080 seconds
#
# Revision: 1
# Processed by: cddbd v1.5.2PL0 Copyright (c) Steve Scherf et al.
# Submitted via: audiograbber 1.83.01
#
DISCID=960c060b
DTITLE=Cory Morrow - Vagrants and Kings
DYEAR=2008
DGENRE=Country
TTITLE0=He Carries Me
TTITLE1=I Can Wait
TTITLE2=All Said and Done
TTITLE3=Love Finds Everyone
TTITLE4=Lord, You Devil
TTITLE5=Gettin' Ready to Rain
TTITLE6=My Baby and Me
TTITLE7=Ten Mile Road
TTITLE8=Radiates
TTITLE9=Worth It
TTITLE10=hidden track
EXTD=
EXTT0=
EXTT1=
EXTT2=
EXTT3=
EXTT4=
EXTT5=
EXTT6=
EXTT7=
EXTT8=
EXTT9=
EXTT10=
PLAYORDER=
